<?xml version="1.0" encoding="UTF-8"?>
<svg version="1.1" xmlns="http://www.w3.org/2000/svg" width="200" height="400">
<path d="M0 0 C-0.64324219 0.31710938 -1.28648437 0.63421875 -1.94921875 0.9609375 C-18.15806563 9.33126927 -31.89636015 21.61439934 -43 36 C-43.71800781 36.90234375 -44.43601562 37.8046875 -45.17578125 38.734375 C-62.38171145 60.86065114 -77.61514003 88.59008815 -84 116 C-83.26136719 115.52949219 -82.52273437 115.05898437 -81.76171875 114.57421875 C-70.34266731 107.56608426 -60.29511308 105.37793512 -47 105 C-46.13729492 104.97276855 -45.27458984 104.94553711 -44.38574219 104.91748047 C-15.20372324 104.11721469 11.99051373 110.89384981 34 131 C34.77859375 131.69738281 35.5571875 132.39476562 36.359375 133.11328125 C53.2098683 149.00503959 63.79320847 171.51842275 64.54101562 194.66992188 C64.97195306 255.19704404 35.02020628 317.58291274 -6.875 360.1875 C-13.1198163 366.38934738 -19.90370118 371.80876077 -27 377 C-27.57556641 377.42522949 -28.15113281 377.85045898 -28.74414062 378.28857422 C-36.38442644 383.86443937 -44.35822769 388.38786145 -52.875 392.5 C-53.74261963 392.921604 -54.61023926 393.34320801 -55.50415039 393.77758789 C-60.95560401 396.32354771 -66.0829497 397.9002654 -72 399 C-68.75228576 396.31685257 -65.47791282 393.99038014 -61.875 391.8125 C-24.14909801 367.95641492 -2.0390374 325.10112922 12 284 C11.175 284.38671875 10.35 284.7734375 9.5 285.171875 C-16.60408205 296.94201914 -46.10670988 298.94171099 -73.16918945 288.87670898 C-80.67663353 285.89599715 -88.64742307 282.47018316 -95.00390625 277.40234375 C-97.26518978 275.8136925 -99.06514305 275.34853499 -101.75 274.75 C-109.01430139 272.60905487 -113.09209377 269.22935026 -116.95703125 262.6875 C-118.74293983 259.29206886 -120.35395064 255.82475936 -121.93505859 252.33007812 C-123.0432485 249.90537283 -124.19953255 247.50786155 -125.36328125 245.109375 C-143.62306965 206.93995163 -135.57893461 166.397036 -122.16015625 127.58984375 C-113.13408774 102.46498881 -100.74105821 78.84680997 -84 58 C-83.58959473 57.48808105 -83.17918945 56.97616211 -82.75634766 56.44873047 C-69.91856616 40.55226672 -24.07358601 -9.13532262 0 0 Z " fill="#000000" transform="translate(136,1)"/>
<path d="M0 0 C5.77301856 4.93112002 5.77301856 4.93112002 6.23828125 9.171875 C6.43925119 16.15293619 5.09026157 19.68900546 0.25 24.875 C-0.36875 25.431875 -0.36875 25.431875 -1 26 C-0.071875 26.556875 0.85625 27.11375 1.8125 27.6875 C5.59877695 30.43440681 7.54291316 32.34889632 8.3515625 37.0390625 C8.69354219 42.27675149 7.63383548 45.91128121 4.6328125 50.20703125 C0.83642516 54.37579151 -4.50689178 57.74615157 -10.21728516 58.16113281 C-13.01998325 58.20689549 -15.82195898 58.23530516 -18.625 58.25 C-19.58535156 58.270625 -20.54570313 58.29125 -21.53515625 58.3125 C-28.00176744 58.34759694 -32.97455277 57.36048448 -39 55 C-39 50.38 -39 45.76 -39 41 C-34 42 -34 42 -30.4375 43.5625 C-25.07127368 45.62329414 -19.66395331 45.71510458 -14 45 C-10.64979232 43.70902492 -10.64979232 43.70902492 -9 41 C-9 38.69 -9 36.38 -9 34 C-14.28 33.34 -19.56 32.68 -25 32 C-25 28.37 -25 24.74 -25 21 C-24.08476563 20.87882812 -23.16953125 20.75765625 -22.2265625 20.6328125 C-21.03804687 20.46523437 -19.84953125 20.29765625 -18.625 20.125 C-17.44164063 19.96257812 -16.25828125 19.80015625 -15.0390625 19.6328125 C-11.90433341 19.2697415 -11.90433341 19.2697415 -10 17 C-9.83318891 13.91652174 -9.83318891 13.91652174 -10 11 C-18.03960974 8.925262 -24.33537202 9.69617006 -31.8359375 13.125 C-34 14 -34 14 -37 14 C-37 9.38 -37 4.76 -37 0 C-25.97111638 -3.72807334 -10.67143662 -6.10483086 0 0 Z " fill="#FAFAFA" transform="translate(112,169)"/>
</svg>
