<?xml version="1.0" encoding="UTF-8"?>
<svg version="1.1" xmlns="http://www.w3.org/2000/svg" width="200" height="400">
<path d="M0 0 C-0.64324219 0.31710938 -1.28648437 0.63421875 -1.94921875 0.9609375 C-18.15806563 9.33126927 -31.89636015 21.61439934 -43 36 C-43.71800781 36.90234375 -44.43601562 37.8046875 -45.17578125 38.734375 C-62.38171145 60.86065114 -77.61514003 88.59008815 -84 116 C-83.26136719 115.52949219 -82.52273437 115.05898437 -81.76171875 114.57421875 C-70.34266731 107.56608426 -60.29511308 105.37793512 -47 105 C-46.13729492 104.97276855 -45.27458984 104.94553711 -44.38574219 104.91748047 C-15.20372324 104.11721469 11.99051373 110.89384981 34 131 C34.77859375 131.69738281 35.5571875 132.39476562 36.359375 133.11328125 C53.2098683 149.00503959 63.79320847 171.51842275 64.54101562 194.66992188 C64.97195306 255.19704404 35.02020628 317.58291274 -6.875 360.1875 C-13.1198163 366.38934738 -19.90370118 371.80876077 -27 377 C-27.57556641 377.42522949 -28.15113281 377.85045898 -28.74414062 378.28857422 C-36.38442644 383.86443937 -44.35822769 388.38786145 -52.875 392.5 C-53.74261963 392.921604 -54.61023926 393.34320801 -55.50415039 393.77758789 C-60.95560401 396.32354771 -66.0829497 397.9002654 -72 399 C-68.75228576 396.31685257 -65.47791282 393.99038014 -61.875 391.8125 C-24.14909801 367.95641492 -2.0390374 325.10112922 12 284 C11.175 284.38671875 10.35 284.7734375 9.5 285.171875 C-16.60408205 296.94201914 -46.10670988 298.94171099 -73.16918945 288.87670898 C-80.67663353 285.89599715 -88.64742307 282.47018316 -95.00390625 277.40234375 C-97.26518978 275.8136925 -99.06514305 275.34853499 -101.75 274.75 C-109.01430139 272.60905487 -113.09209377 269.22935026 -116.95703125 262.6875 C-118.74293983 259.29206886 -120.35395064 255.82475936 -121.93505859 252.33007812 C-123.0432485 249.90537283 -124.19953255 247.50786155 -125.36328125 245.109375 C-143.62306965 206.93995163 -135.57893461 166.397036 -122.16015625 127.58984375 C-113.13408774 102.46498881 -100.74105821 78.84680997 -84 58 C-83.58959473 57.48808105 -83.17918945 56.97616211 -82.75634766 56.44873047 C-69.91856616 40.55226672 -24.07358601 -9.13532262 0 0 Z " fill="#000000" transform="translate(136,1)"/>
<path d="M0 0 C14.19 0 28.38 0 43 0 C43 3.96 43 7.92 43 12 C33.76 12 24.52 12 15 12 C15 14.97 15 17.94 15 21 C15.89460938 20.95359375 16.78921875 20.9071875 17.7109375 20.859375 C25.55832493 20.62512463 32.15959989 20.85024651 39 25 C43.01301599 29.01301599 44.1660872 32.47810013 44.375 38.0625 C44.28484603 44.25034086 42.84424035 49.09527955 39 54 C32.14015699 59.22597497 25.74326077 60.20141793 17.375 60.25 C16.51003906 60.270625 15.64507812 60.29125 14.75390625 60.3125 C8.55827086 60.34965523 3.78304073 59.22875809 -2 57 C-2 52.38 -2 47.76 -2 43 C1.45376468 43.69075294 4.11020839 44.35066387 7.3125 45.5625 C12.7169542 47.396957 17.30966941 47.81879627 22.875 46.125 C25.13325765 45.06279958 25.13325765 45.06279958 27 43 C27.47070552 38.82681666 27.47070552 38.82681666 25.6875 35.1875 C22.35277731 32.84084329 19.31599791 32.86481654 15.375 32.875 C14.39273438 32.87242187 13.41046875 32.86984375 12.3984375 32.8671875 C8.25157601 33.02924875 4.12464433 33.54170619 0 34 C0 22.78 0 11.56 0 0 Z " fill="#F9F9F9" transform="translate(76,167)"/>
</svg>
