<?xml version="1.0" encoding="UTF-8"?>
<svg version="1.1" xmlns="http://www.w3.org/2000/svg" width="200" height="400">
<path d="M0 0 C-0.64324219 0.31710938 -1.28648437 0.63421875 -1.94921875 0.9609375 C-18.15806563 9.33126927 -31.89636015 21.61439934 -43 36 C-43.71800781 36.90234375 -44.43601562 37.8046875 -45.17578125 38.734375 C-62.38171145 60.86065114 -77.61514003 88.59008815 -84 116 C-83.26136719 115.52949219 -82.52273437 115.05898437 -81.76171875 114.57421875 C-70.34266731 107.56608426 -60.29511308 105.37793512 -47 105 C-46.13729492 104.97276855 -45.27458984 104.94553711 -44.38574219 104.91748047 C-15.20372324 104.11721469 11.99051373 110.89384981 34 131 C34.77859375 131.69738281 35.5571875 132.39476562 36.359375 133.11328125 C53.2098683 149.00503959 63.79320847 171.51842275 64.54101562 194.66992188 C64.97195306 255.19704404 35.02020628 317.58291274 -6.875 360.1875 C-13.1198163 366.38934738 -19.90370118 371.80876077 -27 377 C-27.57556641 377.42522949 -28.15113281 377.85045898 -28.74414062 378.28857422 C-36.38442644 383.86443937 -44.35822769 388.38786145 -52.875 392.5 C-53.74261963 392.921604 -54.61023926 393.34320801 -55.50415039 393.77758789 C-60.95560401 396.32354771 -66.0829497 397.9002654 -72 399 C-68.75228576 396.31685257 -65.47791282 393.99038014 -61.875 391.8125 C-24.14909801 367.95641492 -2.0390374 325.10112922 12 284 C11.175 284.38671875 10.35 284.7734375 9.5 285.171875 C-16.60408205 296.94201914 -46.10670988 298.94171099 -73.16918945 288.87670898 C-80.67663353 285.89599715 -88.64742307 282.47018316 -95.00390625 277.40234375 C-97.26518978 275.8136925 -99.06514305 275.34853499 -101.75 274.75 C-109.01430139 272.60905487 -113.09209377 269.22935026 -116.95703125 262.6875 C-118.74293983 259.29206886 -120.35395064 255.82475936 -121.93505859 252.33007812 C-123.0432485 249.90537283 -124.19953255 247.50786155 -125.36328125 245.109375 C-143.62306965 206.93995163 -135.57893461 166.397036 -122.16015625 127.58984375 C-113.13408774 102.46498881 -100.74105821 78.84680997 -84 58 C-83.58959473 57.48808105 -83.17918945 56.97616211 -82.75634766 56.44873047 C-69.91856616 40.55226672 -24.07358601 -9.13532262 0 0 Z " fill="#000000" transform="translate(136,1)"/>
<path d="M0 0 C4.18504905 4.08042282 5.79817995 7.9817995 6.375 13.75 C6.02823449 23.49593582 -0.18537073 30.58323082 -7 37 C-9.64 38.98 -12.28 40.96 -15 43 C-7.41 43.33 0.18 43.66 8 44 C8 47.96 8 51.92 8 56 C-7.18 56 -22.36 56 -38 56 C-38 45 -38 45 -35.4375 41.984375 C-34.31565525 41.20391807 -33.16792595 40.45964613 -32 39.75 C-30.80090494 38.92619175 -29.60298559 38.10066958 -28.40625 37.2734375 C-27.52839844 36.69287598 -27.52839844 36.69287598 -26.6328125 36.10058594 C-20.04963735 31.6632424 -13.28868975 25.89417114 -11.5234375 17.8203125 C-11.27217602 15.41697382 -11.27217602 15.41697382 -12 12 C-13.79580434 9.66863744 -13.79580434 9.66863744 -17 9 C-23.09182113 8.86823016 -27.64838405 10.06935317 -33 13 C-34.32 13 -35.64 13 -37 13 C-37 8.71 -37 4.42 -37 0 C-25.51418305 -5.08026519 -11.21872063 -7.02310153 0 0 Z " fill="#F9F9F9" transform="translate(113,170)"/>
</svg>
