<?xml version="1.0" encoding="UTF-8"?>
<svg version="1.1" xmlns="http://www.w3.org/2000/svg" width="170" height="170">
<path d="M0 0 C1.51803756 1.31276036 3.01935951 2.64520056 4.5 4 C5.18191406 4.59039063 5.86382812 5.18078125 6.56640625 5.7890625 C18.49466002 16.76025481 27.44862097 33.59868467 28.72143555 49.82250977 C29.66564723 74.54313941 24.43274323 92.93715263 8.5 112 C7.93667969 112.67933594 7.37335938 113.35867187 6.79296875 114.05859375 C-4.320585 126.2412995 -22.71070113 134.87816332 -38.96240234 136.30371094 C-42.60557305 136.43658951 -46.22957081 136.46812783 -49.875 136.4375 C-51.15850342 136.42847656 -52.44200684 136.41945312 -53.7644043 136.41015625 C-62.68489736 136.2465296 -70.27001842 135.66692546 -78.5 132 C-79.14179199 131.72091797 -79.78358398 131.44183594 -80.44482422 131.15429688 C-100.14751994 122.45092554 -114.19527249 108.77702995 -122.81640625 88.9765625 C-130.14542295 69.66690228 -129.92802481 48.0097993 -122.25 28.88671875 C-113.81277892 10.40632825 -98.53953908 -4.41845012 -79.48046875 -11.57421875 C-52.81824123 -20.94298887 -22.54938912 -17.51542763 0 0 Z M-100.625 23.5078125 C-111.26973855 37.77726806 -113.83672898 53.70479428 -111.5 71 C-107.99668933 87.3729856 -99.08438009 101.59633422 -85.0625 110.9375 C-68.61372389 120.53066957 -51.70219709 123.52854174 -33.0546875 119.10546875 C-23.12251681 116.01667281 -14.27184118 110.8978992 -6.5 104 C-5.89929688 103.49210937 -5.29859375 102.98421875 -4.6796875 102.4609375 C6.49968329 92.28420086 12.03402006 78.21841373 13.375 63.4375 C14.10165827 45.74337114 8.00893627 32.06777829 -3.40625 18.78125 C-12.9140346 8.65000412 -26.9447995 0.74346192 -41.00439453 -0.16113281 C-43.87804665 -0.20704292 -46.75101216 -0.2352616 -49.625 -0.25 C-50.60726562 -0.270625 -51.58953125 -0.29125 -52.6015625 -0.3125 C-72.14045142 -0.41533626 -88.2693453 8.92632295 -100.625 23.5078125 Z " fill="#000000" transform="translate(132.5,24)"/>
<path d="M0 0 C4.24875 -0.061875 8.4975 -0.12375 12.875 -0.1875 C14.1935498 -0.21481201 15.51209961 -0.24212402 16.87060547 -0.27026367 C27.19916691 -0.34249681 35.64935379 0.71632696 43.30859375 8.03515625 C47.95793605 13.43612432 49.61570842 19.15708417 50.3125 26.125 C49.73150963 33.32928063 47.27720939 40.87800265 42 46 C35.83756338 50.68881047 30.55380177 52.2611436 22.8515625 52.1953125 C21.64838379 52.19031738 20.44520508 52.18532227 19.20556641 52.18017578 C16.93818604 52.15286377 16.93818604 52.15286377 14.625 52.125 C7.385625 52.063125 7.385625 52.063125 0 52 C0 34.84 0 17.68 0 0 Z M15 11 C15 20.9 15 30.8 15 41 C23.77183041 41.63946004 23.77183041 41.63946004 30 38 C33.93072102 33.5077474 34.3579009 29.35996161 34.2734375 23.57421875 C33.82586098 19.36060547 32.65739044 17.33877261 30 14 C24.4742554 10.70580611 21.83348159 11 15 11 Z " fill="#000000" transform="translate(40,54)"/>
<path d="M0 0 C1.29349365 0.00523682 2.5869873 0.01047363 3.91967773 0.01586914 C4.9496714 0.01799156 4.9496714 0.01799156 6.00047302 0.02015686 C8.20144949 0.0257706 10.40232557 0.03832532 12.60327148 0.05102539 C14.09220231 0.05603863 15.58113473 0.06060184 17.07006836 0.06469727 C20.72700223 0.07574446 24.38387707 0.09301826 28.04077148 0.11352539 C28.06765299 1.75927105 28.08711272 3.40513952 28.10327148 5.05102539 C28.11487305 5.96754883 28.12647461 6.88407227 28.13842773 7.82836914 C28.04077148 10.11352539 28.04077148 10.11352539 27.04077148 11.11352539 C24.73077148 11.11352539 22.42077148 11.11352539 20.04077148 11.11352539 C20.04077148 21.34352539 20.04077148 31.57352539 20.04077148 42.11352539 C22.68077148 42.11352539 25.32077148 42.11352539 28.04077148 42.11352539 C28.04077148 45.41352539 28.04077148 48.71352539 28.04077148 52.11352539 C17.48077148 52.11352539 6.92077148 52.11352539 -3.95922852 52.11352539 C-3.95922852 48.81352539 -3.95922852 45.51352539 -3.95922852 42.11352539 C-0.98922852 42.11352539 1.98077148 42.11352539 5.04077148 42.11352539 C5.04077148 31.88352539 5.04077148 21.65352539 5.04077148 11.11352539 C2.40077148 11.11352539 -0.23922852 11.11352539 -2.95922852 11.11352539 C-3.95922852 10.11352539 -3.95922852 10.11352539 -4.09204102 8.08227539 C-4.08946289 7.26758789 -4.08688477 6.45290039 -4.08422852 5.61352539 C-4.08680664 4.79883789 -4.08938477 3.98415039 -4.09204102 3.14477539 C-3.87766544 -0.13390993 -3.34647812 0.12838151 0 0 Z " fill="#000000" transform="translate(98.959228515625,53.886474609375)"/>
</svg>
