<?xml version="1.0" encoding="UTF-8"?>
<svg version="1.1" xmlns="http://www.w3.org/2000/svg" width="200" height="400">
<path d="M0 0 C-0.64324219 0.31710938 -1.28648437 0.63421875 -1.94921875 0.9609375 C-18.15806563 9.33126927 -31.89636015 21.61439934 -43 36 C-43.71800781 36.90234375 -44.43601562 37.8046875 -45.17578125 38.734375 C-62.38171145 60.86065114 -77.61514003 88.59008815 -84 116 C-83.35675781 115.68546875 -82.71351562 115.3709375 -82.05078125 115.046875 C-57.13513018 103.24659518 -28.1813565 100.95507101 -1.96337891 109.94995117 C11.45031733 114.83339011 23.41920508 121.33421093 34 131 C34.77859375 131.69738281 35.5571875 132.39476562 36.359375 133.11328125 C53.2098683 149.00503959 63.79320847 171.51842275 64.54101562 194.66992188 C64.97195306 255.19704404 35.02020628 317.58291274 -6.875 360.1875 C-13.1198163 366.38934738 -19.90370118 371.80876077 -27 377 C-27.57556641 377.42522949 -28.15113281 377.85045898 -28.74414062 378.28857422 C-36.38442644 383.86443937 -44.35822769 388.38786145 -52.875 392.5 C-53.74261963 392.921604 -54.61023926 393.34320801 -55.50415039 393.77758789 C-60.95560401 396.32354771 -66.0829497 397.9002654 -72 399 C-68.75228576 396.31685257 -65.47791282 393.99038014 -61.875 391.8125 C-24.14909801 367.95641492 -2.0390374 325.10112922 12 284 C11.175 284.38671875 10.35 284.7734375 9.5 285.171875 C-16.61055373 296.94493717 -46.09664642 298.93211963 -73.16674805 288.87866211 C-76.16112432 287.68823847 -79.08215758 286.36601821 -82 285 C-83.423125 284.34064453 -83.423125 284.34064453 -84.875 283.66796875 C-108.01966134 271.99471659 -124.4434929 251.21309456 -133 227 C-146.64624777 185.18789682 -126.51070617 132.08159459 -107.9296875 94.59765625 C-101.27854443 81.61113146 -93.13161685 69.37114982 -84 58 C-83.58959473 57.48808105 -83.17918945 56.97616211 -82.75634766 56.44873047 C-69.91856616 40.55226672 -24.07358601 -9.13532262 0 0 Z M-90 154 C-102.30416219 168.81372398 -108.20048225 186.83674637 -107 206 C-104.31021673 227.10796023 -94.73439628 243.86783071 -78 257 C-63.37315615 267.4302842 -45.06791948 271.87473848 -27.27734375 269.50390625 C-8.58331463 266.13783997 8.71855988 256.40478044 19.75 240.6875 C30.6035281 224.61575131 35.03687546 206.75971298 31.78515625 187.5078125 C28.73149582 173.8650908 22.61846397 159.52579881 12 150 C11.34 150 10.68 150 10 150 C10 149.34 10 148.68 10 148 C8.09438806 146.45793883 6.20937406 145.06269037 4.1875 143.6875 C3.59727051 143.28450684 3.00704102 142.88151367 2.39892578 142.46630859 C-28.03813498 122.15584854 -64.89595151 128.26094185 -90 154 Z " fill="#000000" transform="translate(136,1)"/>
<path d="M0 0 C11.5473001 -1.68788841 11.5473001 -1.68788841 17 0 C21.63368829 3.56359629 24.35145705 8.89813841 27 14 C27.53625 12.989375 28.0725 11.97875 28.625 10.9375 C34.54676395 0.79586587 34.54676395 0.79586587 39.04394531 -0.66308594 C43.75757729 -1.23884501 48.3292628 -0.73016487 53 0 C51.68803678 3.6648662 50.10184201 6.44322613 47.70703125 9.50390625 C47.07732422 10.32697266 46.44761719 11.15003906 45.79882812 11.99804688 C44.46831735 13.71580562 43.13231553 15.42932446 41.79101562 17.13867188 C40.85225586 18.37133789 40.85225586 18.37133789 39.89453125 19.62890625 C39.31550049 20.37213135 38.73646973 21.11535645 38.13989258 21.88110352 C36.82347324 23.88660368 36.82347324 23.88660368 37.10791016 25.95239258 C38.25587213 28.58730147 39.72715464 30.77914654 41.37890625 33.1328125 C42.05244141 34.10347656 42.72597656 35.07414062 43.41992188 36.07421875 C44.12697266 37.08097656 44.83402344 38.08773437 45.5625 39.125 C46.96380612 41.12468797 48.36116106 43.1271526 49.75390625 45.1328125 C50.37595947 46.01855957 50.9980127 46.90430664 51.63891602 47.81689453 C53 50 53 50 53 52 C41.4526999 53.68788841 41.4526999 53.68788841 36 52 C31.36631171 48.43640371 28.64854295 43.10186159 26 38 C25.195625 39.5159375 25.195625 39.5159375 24.375 41.0625 C18.45323605 51.20413413 18.45323605 51.20413413 13.95605469 52.66308594 C9.24242271 53.23884501 4.6707372 52.73016487 0 52 C1.58019713 47.13785499 4.3856272 43.51876341 7.4375 39.5 C9.31094145 37.01356653 11.16469982 34.51469702 13 32 C13.65097656 31.1234375 14.30195312 30.246875 14.97265625 29.34375 C16.29151687 27.03187253 16.29151687 27.03187253 15.26782227 24.65307617 C13.97023728 21.93771779 12.50118513 19.64674866 10.7421875 17.20703125 C10.11699219 16.32982422 9.49179688 15.45261719 8.84765625 14.54882812 C8.19667969 13.64583984 7.54570313 12.74285156 6.875 11.8125 C5.57647928 10.0095637 4.28198455 8.20371862 2.9921875 6.39453125 C2.41839355 5.59893799 1.84459961 4.80334473 1.25341797 3.98364258 C0 2 0 2 0 0 Z " fill="#000000" transform="translate(97,173)"/>
<path d="M0 0 C12.54 0 25.08 0 38 0 C38 3.63 38 7.26 38 11 C30.41 11 22.82 11 15 11 C15 13.64 15 16.28 15 19 C22.26 19 29.52 19 37 19 C37 22.3 37 25.6 37 29 C36 30 36 30 33.95874023 30.11352539 C33.08419189 30.10828857 32.20964355 30.10305176 31.30859375 30.09765625 C30.36435547 30.09443359 29.42011719 30.09121094 28.44726562 30.08789062 C27.45404297 30.07951172 26.46082031 30.07113281 25.4375 30.0625 C24.44041016 30.05798828 23.44332031 30.05347656 22.41601562 30.04882812 C19.94398513 30.03700023 17.47198528 30.01906415 15 30 C15 33.63 15 37.26 15 41 C22.59 41 30.18 41 38 41 C38 44.63 38 48.26 38 52 C25.46 52 12.92 52 0 52 C0 34.84 0 17.68 0 0 Z " fill="#000000" transform="translate(55,173)"/>
</svg>
