<?xml version="1.0" encoding="UTF-8"?>
<svg version="1.1" xmlns="http://www.w3.org/2000/svg" width="38" height="60">
<path d="M0 0 C12.54 0 25.08 0 38 0 C38 19.8 38 39.6 38 60 C25.46 60 12.92 60 0 60 C0 40.2 0 20.4 0 0 Z " fill="#FBFBFB" transform="translate(0,0)"/>
<path d="M0 0 C0 0.99 0 1.98 0 3 C-1.01320313 3.45439453 -1.01320313 3.45439453 -2.046875 3.91796875 C-7.10631963 6.294153 -10.92947779 8.1150783 -14 13 C-12.948125 12.9175 -11.89625 12.835 -10.8125 12.75 C-6.43112175 13.03730349 -5.05154419 13.94845581 -2 17 C-0.45563385 20.08873231 -0.41141755 22.67046989 -1 26 C-4.31547115 35.22510867 -9.43331084 42.26748882 -18.02734375 47.15234375 C-20.80837118 48.42820623 -22.92699649 49 -26 49 C-25.8046875 47.16015625 -25.8046875 47.16015625 -25 45 C-22.8203125 43.62109375 -22.8203125 43.62109375 -20.125 42.4375 C-16.76809246 40.94499738 -14.54228802 39.62601607 -12 37 C-11.34 37 -10.68 37 -10 37 C-10 36.34 -10 35.68 -10 35 C-11.19625 35.268125 -12.3925 35.53625 -13.625 35.8125 C-17.21681156 36.22792305 -18.05515933 35.97242033 -21.5 34.25 C-24.09809386 31.673319 -24.52504879 29.4168319 -24.75 25.8125 C-24.258127 17.5065536 -19.99661452 11.56324063 -14 6.0625 C-9.51419268 2.43276278 -5.90394764 0 0 0 Z " fill="#070707" transform="translate(32,7)"/>
<path d="M0 0 C0 0.99 0 1.98 0 3 C-0.66386719 3.31453125 -1.32773437 3.6290625 -2.01171875 3.953125 C-6.80423563 6.2759215 -10.87508835 8.60301393 -15 12 C-17.3125 12.75 -17.3125 12.75 -19 13 C-15.76631778 5.66080948 -8.0377045 0 0 0 Z " fill="#1C1C1C" transform="translate(32,7)"/>
<path d="M0 0 C2 2 2 2 2 4 C-4.625 7 -4.625 7 -8 7 C-7.9375 5.1875 -7.9375 5.1875 -7 3 C-3.4375 1.25 -3.4375 1.25 0 0 Z " fill="#1B1B1B" transform="translate(14,49)"/>
<path d="M0 0 C0 0.99 0 1.98 0 3 C-2.64 3.99 -5.28 4.98 -8 6 C-8.33 5.34 -8.66 4.68 -9 4 C-5.86025155 0.71753571 -4.76763047 0 0 0 Z " fill="#0F0F0F" transform="translate(32,7)"/>
</svg>
