<?xml version="1.0" encoding="UTF-8"?>
<svg version="1.1" xmlns="http://www.w3.org/2000/svg" width="399" height="328">
<path d="M0 0 C5.57643544 5.21620278 10.48685896 10.81683731 15.0625 16.9375 C15.78824219 17.89785156 16.51398438 18.85820313 17.26171875 19.84765625 C40.66363613 52.1529209 49.43335968 91.26325068 43.40673828 130.58496094 C36.95838645 169.12868484 14.90863808 202.76871106 -16.40234375 225.7890625 C-27.95837258 233.99301807 -40.56678737 240.28560623 -53.9375 244.9375 C-54.57945312 245.16276367 -55.22140625 245.38802734 -55.8828125 245.62011719 C-94.18757601 258.78268543 -136.33965176 254.48506721 -172.5390625 237.16015625 C-177.95860219 234.47104539 -183.02292467 231.4688851 -187.9375 227.9375 C-188.86046875 227.29683594 -189.7834375 226.65617187 -190.734375 225.99609375 C-204.44958975 216.14508633 -216.0429695 204.59330751 -225.9375 190.9375 C-226.4840625 190.20789063 -227.030625 189.47828125 -227.59375 188.7265625 C-243.10433588 166.92557235 -252.08751348 139.65664155 -252.9375 112.9375 C-252.97746094 111.89207031 -253.01742187 110.84664062 -253.05859375 109.76953125 C-253.79321865 72.21723484 -240.74102206 35.58257791 -214.9453125 8.12109375 C-212.87301431 5.92010253 -212.87301431 5.92010253 -210.88671875 3.35546875 C-191.40568246 -20.81038588 -154.85529415 -35.92757229 -124.91796875 -39.76171875 C-78.24451282 -44.47188403 -34.92288756 -31.70373871 0 0 Z M-192.9375 4.9375 C-193.76636719 5.63359375 -194.59523437 6.3296875 -195.44921875 7.046875 C-220.34288135 28.46245915 -236.50136416 60.37606435 -239.69140625 93 C-242.0271581 130.37202955 -231.64096802 165.33093252 -206.9375 193.9375 C-198.17574899 203.76308548 -188.78344182 211.83241293 -177.65185547 218.85058594 C-176.21892798 219.75907258 -174.81110583 220.70699957 -173.41015625 221.6640625 C-147.2015244 238.89082579 -109.35982006 244.5420956 -78.96948242 238.41577148 C-76.94766271 237.95997683 -74.94359359 237.45808339 -72.9375 236.9375 C-72.14972168 236.73882324 -71.36194336 236.54014648 -70.55029297 236.33544922 C-58.55537079 233.23631605 -47.75445933 228.95367401 -36.9375 222.9375 C-36.01710938 222.43347656 -35.09671875 221.92945313 -34.1484375 221.41015625 C-20.9141824 213.82671801 -8.47267385 203.88054603 1.0625 191.9375 C1.66167236 191.19016602 1.66167236 191.19016602 2.27294922 190.42773438 C17.4094963 171.32324559 26.87803265 149.93045307 31.0625 125.9375 C31.33900391 124.37515625 31.33900391 124.37515625 31.62109375 122.78125 C35.59214707 88.20145823 26.27950157 52.33219607 4.8125 24.75 C-18.29211481 -3.95831573 -50.47484201 -22.18305408 -87 -27.375 C-125.46279401 -31.35127294 -163.71196055 -20.74146861 -192.9375 4.9375 Z " fill="#000000" transform="translate(301.9375,46.0625)"/>
<path d="M0 0 C2.87200898 3.25397412 4.76549376 6.28591593 6.375 10.3046875 C6.7973291 11.34898926 7.2196582 12.39329102 7.65478516 13.46923828 C8.09870605 14.59313965 8.54262695 15.71704102 9 16.875 C9.46841309 18.04144043 9.93682617 19.20788086 10.41943359 20.40966797 C14.78069704 31.31930585 19.01410392 42.28050104 23.203125 53.25732422 C23.57345352 54.22372833 23.57345352 54.22372833 23.95126343 55.20965576 C24.62260992 56.96210667 25.2911345 58.71563787 25.95947266 60.46923828 C26.76715083 62.89551722 26.76715083 62.89551722 28 64 C30.29317024 58.47236664 32.58604222 52.94460969 34.87866211 47.41674805 C35.65527694 45.54431991 36.43196708 43.67192301 37.20874023 41.79956055 C37.96331533 39.98067849 38.7177407 38.16173432 39.47201538 36.34272766 C40.22242549 34.53355471 40.97342245 32.72462507 41.7250061 30.91593933 C43.50714949 26.62296183 45.2772231 22.32598491 47.01513672 18.01489258 C47.48674477 16.85068031 47.48674477 16.85068031 47.96788025 15.66294861 C48.55030929 14.22285042 49.12871322 12.78111458 49.7021637 11.3374176 C52.28712585 4.96095066 54.73358744 0.4447594 61.25 -2.4375 C68.30609793 -3.49591469 74.89193277 -4.32034024 81 0 C84.56062138 4.47052105 84.4278547 8.48807346 84.38818359 13.94946289 C84.39344055 14.84109634 84.39869751 15.7327298 84.40411377 16.65138245 C84.41729339 19.59198641 84.40858359 22.532047 84.3984375 25.47265625 C84.40045864 27.51859135 84.40337041 29.56452574 84.40713501 31.61045837 C84.41155545 35.89507924 84.40513555 40.17951231 84.39111328 44.46411133 C84.37401084 49.95776067 84.38387117 55.45097065 84.40183067 60.94460392 C84.41266677 65.16791602 84.40922313 69.39112379 84.4014473 73.61443901 C84.39944537 75.6402536 84.40190428 77.66607764 84.40888596 79.69188118 C84.41649867 82.52148699 84.40489913 85.35037904 84.38818359 88.17993164 C84.39425629 89.01796326 84.40032898 89.85599487 84.40658569 90.71942139 C84.37019087 94.042377 84.25196988 96.5308878 82.66323853 99.48875427 C79.1482452 102.6825347 74.93108425 102.26581972 70.44921875 102.2265625 C67.31472563 101.93660939 65.40390449 101.01617796 63 99 C61.71156795 96.4231359 61.83996567 94.51781241 61.79467773 91.63232422 C61.7647599 89.95080765 61.7647599 89.95080765 61.73423767 88.23532104 C61.71752518 87.02071198 61.70081268 85.80610291 61.68359375 84.5546875 C61.66281265 83.31453888 61.64203156 82.07439026 61.62062073 80.79666138 C61.56622295 77.49888177 61.51599905 74.2010728 61.46777344 70.90319824 C61.41754766 67.53827347 61.36186723 64.1734395 61.30664062 60.80859375 C61.19938443 54.20580146 61.09762811 47.60294128 61 41 C60.73104416 41.66541306 60.46208832 42.33082611 60.1849823 43.0164032 C57.64419204 49.30033424 55.09938466 55.58262483 52.55010509 61.86311626 C51.23977446 65.09169428 49.93098109 68.32087741 48.62573242 71.55151367 C47.12358698 75.26929517 45.61470236 78.98430899 44.10546875 82.69921875 C43.63972946 83.85459641 43.17399017 85.00997406 42.69413757 86.20036316 C42.03379265 87.82147758 42.03379265 87.82147758 41.36010742 89.4753418 C40.97594162 90.42354294 40.59177582 91.37174408 40.19596863 92.34867859 C37.07974832 99.25697153 37.07974832 99.25697153 34.12109375 101.29296875 C31.67063147 102.10978951 29.64489875 102.30056287 27.0625 102.3125 C26.22847656 102.32925781 25.39445312 102.34601563 24.53515625 102.36328125 C21.35682812 101.90783515 19.61110594 100.86100361 17 99 C15.70483398 96.85644531 15.70483398 96.85644531 14.74609375 94.328125 C14.37210449 93.36769287 13.99811523 92.40726074 13.61279297 91.41772461 C13.03102295 89.84970093 13.03102295 89.84970093 12.4375 88.25 C11.81319092 86.62880249 11.81319092 86.62880249 11.17626953 84.97485352 C10.26709423 82.61036289 9.36508687 80.24310704 8.46923828 77.87353516 C6.89949199 73.72214991 5.29337261 69.58521532 3.68359375 65.44921875 C0.77496073 57.97154371 -2.11719767 50.48767223 -5 43 C-5.00586624 43.6403569 -5.01173248 44.28071381 -5.01777649 44.94047546 C-5.08173193 51.60798718 -5.16615759 58.2750172 -5.26245117 64.94213867 C-5.29569657 67.43002978 -5.32372966 69.91799624 -5.34643555 72.40600586 C-5.3799877 75.98323668 -5.43230592 79.55977719 -5.48828125 83.13671875 C-5.49786613 84.80416389 -5.49786613 84.80416389 -5.50764465 86.5052948 C-5.52743881 87.54599625 -5.54723297 88.58669769 -5.56762695 89.65893555 C-5.57873001 90.5716069 -5.58983307 91.48427826 -5.60127258 92.42460632 C-6.08321427 95.53748373 -7.18862648 97.44395629 -9 100 C-13.0345248 102.73093601 -17.29922464 102.53723147 -22 102 C-25.15974643 100.7226557 -26.51496236 99.91285656 -28.11174011 96.90766907 C-29.26200727 93.14233385 -29.28714206 89.56310714 -29.2746582 85.66479492 C-29.27976913 84.83810806 -29.28488007 84.0114212 -29.29014587 83.15968323 C-29.30401859 80.43320425 -29.30308653 77.70697879 -29.30078125 74.98046875 C-29.3046701 73.07863776 -29.30900516 71.17680764 -29.31376648 69.27497864 C-29.32122418 65.28965439 -29.32094113 61.30441872 -29.31567383 57.3190918 C-29.30988673 52.22492398 -29.32679403 47.13112065 -29.3500185 42.03701305 C-29.36478996 38.10864662 -29.36562278 34.18036721 -29.36250877 30.25197792 C-29.3630205 28.37459912 -29.36823018 26.49721526 -29.37832069 24.61986351 C-29.39073093 21.98746847 -29.38386566 19.35577348 -29.37231445 16.72338867 C-29.37995819 15.95584259 -29.38760193 15.18829651 -29.39547729 14.39749146 C-29.34338887 8.99588859 -28.29084777 4.9161141 -26 0 C-18.51447674 -4.88850499 -7.72502267 -4.40356351 0 0 Z " fill="#000000" transform="translate(133,96)"/>
<path d="M0 0 C10.52146977 5.08613618 15.63580758 20.15821907 21 30 C21.66 30 22.32 30 23 30 C23.43868408 29.22809326 23.87736816 28.45618652 24.3293457 27.66088867 C25.96367591 24.79049224 27.60230829 21.92264354 29.24389648 19.05639648 C29.95266174 17.81682645 30.65971228 16.57627431 31.36499023 15.3347168 C32.38072582 13.54733713 33.40263398 11.76361364 34.42578125 9.98046875 C35.03848877 8.90692139 35.65119629 7.83337402 36.2824707 6.72729492 C38.59036441 3.06255 39.87020918 1.37659694 44 0 C49.13397368 -0.48478699 53.53274931 -0.74801015 58.1875 1.625 C60.60614066 4.79425328 60.47453516 6.04102096 60 10 C58.67678861 13.19237652 56.97856792 16.13677177 55.25 19.125 C54.76499023 19.98939697 54.27998047 20.85379395 53.78027344 21.74438477 C51.1363051 26.41772957 48.39153879 31.01852225 45.5625 35.58203125 C45.00916992 36.47970215 44.45583984 37.37737305 43.88574219 38.30224609 C42.81227032 40.03165734 41.72476355 41.75245146 40.62207031 43.46337891 C39.88875488 44.639729 39.88875488 44.639729 39.140625 45.83984375 C38.70266602 46.52425537 38.26470703 47.20866699 37.81347656 47.91381836 C36.7246125 50.70623835 37.10703426 52.1615275 38 55 C39.14781182 57.38149316 39.14781182 57.38149316 40.625 59.73828125 C41.16286133 60.63385742 41.70072266 61.52943359 42.25488281 62.45214844 C43.11871582 63.86802246 43.11871582 63.86802246 44 65.3125 C45.18363767 67.28174368 46.36591946 69.25180293 47.546875 71.22265625 C48.13146484 72.19605957 48.71605469 73.16946289 49.31835938 74.17236328 C51.6918945 78.16340333 53.98412367 82.1970937 56.25 86.25 C56.80494141 87.24060425 56.80494141 87.24060425 57.37109375 88.2512207 C61.61688615 95.85928212 61.61688615 95.85928212 61 101 C59.25 103.375 59.25 103.375 56 105 C50.20540609 105.79422406 44.4836555 106.23950732 39.5378418 102.61865234 C35.89031375 98.7794539 33.74778408 93.74431346 31.375 89.0625 C30.26237748 86.90519159 29.14533133 84.75015774 28.0234375 82.59765625 C27.53794434 81.64383057 27.05245117 80.69000488 26.55224609 79.70727539 C24.93620992 76.88874359 23.0902768 74.48167536 21 72 C20.60731934 72.7206665 20.21463867 73.44133301 19.81005859 74.18383789 C18.32935531 76.89178879 16.84121246 79.59548048 15.34814453 82.29663086 C14.39438748 84.02731946 13.44905545 85.76264244 12.50390625 87.49804688 C3.89798123 103.03400626 3.89798123 103.03400626 -2 105 C-7.13397368 105.48478699 -11.53274931 105.74801015 -16.1875 103.375 C-18.56021241 100.26592856 -18.39598953 98.86320021 -18 95 C-16.9094725 92.5736502 -15.79957482 90.45012015 -14.4375 88.1875 C-13.86249756 87.19097412 -13.86249756 87.19097412 -13.27587891 86.17431641 C-10.61275174 81.59741801 -7.82563353 77.10065739 -5.02734375 72.60546875 C-4.34293213 71.49469971 -3.65852051 70.38393066 -2.95336914 69.23950195 C-1.58147957 67.01866204 -0.1941903 64.80725242 1.20922852 62.60620117 C1.84401123 61.57857666 2.47879395 60.55095215 3.1328125 59.4921875 C3.70918457 58.57808105 4.28555664 57.66397461 4.87939453 56.72216797 C6.30394434 53.26166027 6.03550605 51.57311549 5 48 C3.62550704 45.02898579 3.62550704 45.02898579 1.83203125 42.078125 C1.18556641 40.96953125 0.53910156 39.8609375 -0.12695312 38.71875 C-0.81362173 37.56239289 -1.50047155 36.40614336 -2.1875 35.25 C-2.84814453 34.12078125 -3.50878906 32.9915625 -4.18945312 31.828125 C-7.6781352 25.8770464 -11.21831397 19.96130973 -14.84619141 14.09399414 C-16.57383398 10.95857511 -17.21021811 8.57370788 -17 5 C-13.27664318 -1.48139891 -6.70635624 -1.07016323 0 0 Z " fill="#000000" transform="translate(242,93)"/>
</svg>
