<?xml version="1.0" encoding="UTF-8"?>
<svg version="1.1" xmlns="http://www.w3.org/2000/svg" width="371" height="328">
<path d="M0 0 C5.57643544 5.21620278 10.48685896 10.81683731 15.0625 16.9375 C15.78824219 17.89785156 16.51398438 18.85820313 17.26171875 19.84765625 C40.66363613 52.1529209 49.43335968 91.26325068 43.40673828 130.58496094 C36.95838645 169.12868484 14.90863808 202.76871106 -16.40234375 225.7890625 C-27.95837258 233.99301807 -40.56678737 240.28560623 -53.9375 244.9375 C-54.57945312 245.16276367 -55.22140625 245.38802734 -55.8828125 245.62011719 C-94.18757601 258.78268543 -136.33965176 254.48506721 -172.5390625 237.16015625 C-177.95860219 234.47104539 -183.02292467 231.4688851 -187.9375 227.9375 C-188.86046875 227.29683594 -189.7834375 226.65617187 -190.734375 225.99609375 C-204.44958975 216.14508633 -216.0429695 204.59330751 -225.9375 190.9375 C-226.4840625 190.20789063 -227.030625 189.47828125 -227.59375 188.7265625 C-243.10433588 166.92557235 -252.08751348 139.65664155 -252.9375 112.9375 C-252.97746094 111.89207031 -253.01742187 110.84664062 -253.05859375 109.76953125 C-253.79321865 72.21723484 -240.74102206 35.58257791 -214.9453125 8.12109375 C-212.87301431 5.92010253 -212.87301431 5.92010253 -210.88671875 3.35546875 C-191.40568246 -20.81038588 -154.85529415 -35.92757229 -124.91796875 -39.76171875 C-78.24451282 -44.47188403 -34.92288756 -31.70373871 0 0 Z M-192.9375 4.9375 C-193.76636719 5.63359375 -194.59523437 6.3296875 -195.44921875 7.046875 C-220.34288135 28.46245915 -236.50136416 60.37606435 -239.69140625 93 C-242.0271581 130.37202955 -231.64096802 165.33093252 -206.9375 193.9375 C-198.17574899 203.76308548 -188.78344182 211.83241293 -177.65185547 218.85058594 C-176.21892798 219.75907258 -174.81110583 220.70699957 -173.41015625 221.6640625 C-147.2015244 238.89082579 -109.35982006 244.5420956 -78.96948242 238.41577148 C-76.94766271 237.95997683 -74.94359359 237.45808339 -72.9375 236.9375 C-72.14972168 236.73882324 -71.36194336 236.54014648 -70.55029297 236.33544922 C-58.55537079 233.23631605 -47.75445933 228.95367401 -36.9375 222.9375 C-36.01710937 222.43347656 -35.09671875 221.92945313 -34.1484375 221.41015625 C-20.9141824 213.82671801 -8.47267385 203.88054603 1.0625 191.9375 C1.66167236 191.19016602 1.66167236 191.19016602 2.27294922 190.42773438 C17.4094963 171.32324559 26.87803265 149.93045307 31.0625 125.9375 C31.33900391 124.37515625 31.33900391 124.37515625 31.62109375 122.78125 C35.59214707 88.20145823 26.27950157 52.33219607 4.8125 24.75 C-18.29211481 -3.95831573 -50.47484201 -22.18305408 -87 -27.375 C-125.46279401 -31.35127294 -163.71196055 -20.74146861 -192.9375 4.9375 Z " fill="#000000" transform="translate(287.9375,46.0625)"/>
<path d="M0 0 C5.31227571 6.14027462 8.85345059 14.0543522 12.625 21.1875 C13.74132936 23.28561306 14.8585549 25.38324948 15.9765625 27.48046875 C16.57629883 28.60630371 17.17603516 29.73213867 17.79394531 30.89208984 C22.46957215 39.626805 27.24646294 48.30752956 32 57 C32.00364563 56.31983826 32.00729126 55.63967651 32.01104736 54.93890381 C32.05282558 47.86598419 32.12213871 40.79371632 32.20751953 33.72119141 C32.23576253 31.0809582 32.25696038 28.44063992 32.27099609 25.80029297 C32.29237856 22.0070428 32.33900791 18.21481921 32.390625 14.421875 C32.39185364 13.23946228 32.39308228 12.05704956 32.39434814 10.83880615 C32.41406677 9.73796692 32.4337854 8.63712769 32.45410156 7.50292969 C32.46742523 6.05064972 32.46742523 6.05064972 32.48101807 4.56903076 C33.14946706 1.26011783 34.39205514 0.08134417 37 -2 C41.42114361 -3.47371454 45.35133099 -3.51291925 49.8125 -2.125 C52.33808603 -0.82612718 53.72065131 0.1425586 54.61622238 2.89145184 C55.24532748 6.34787646 55.15616599 9.82753353 55.16113281 13.3293457 C55.16858017 14.58619675 55.16858017 14.58619675 55.17617798 15.86843872 C55.19077038 18.63756129 55.19759677 21.40662657 55.203125 24.17578125 C55.20887889 26.10385642 55.2146366 28.03193157 55.22039795 29.96000671 C55.23089965 34.00255601 55.23674774 38.04508547 55.24023438 42.08764648 C55.24571709 47.25926461 55.26974392 52.4306192 55.29820633 57.60215473 C55.31686037 61.58537047 55.32203979 65.56852307 55.32357025 69.55177879 C55.3265911 71.4579023 55.3346004 73.36402485 55.34775543 75.27010536 C55.36487365 77.94109591 55.36292164 80.61144705 55.35644531 83.2824707 C55.3656601 84.06453384 55.37487488 84.84659698 55.3843689 85.65235901 C55.34529287 90.81562384 54.44764129 94.42468639 52 99 C47.61162934 102.16370908 43.28298196 102.72833344 38 102 C29.85121474 99.61156294 26.02745498 94.08945933 22.10534668 86.93495178 C20.31093636 83.57621187 18.55795833 80.19687518 16.8125 76.8125 C15.40584077 74.10884661 13.99413633 71.40784344 12.58203125 68.70703125 C12.2283548 68.02843048 11.87467834 67.34982971 11.51028442 66.65066528 C6.82093152 57.68736689 1.9045864 48.84676892 -3 40 C-3.00586624 40.67794113 -3.01173248 41.35588226 -3.01777649 42.05436707 C-3.08171579 49.11114535 -3.16613745 56.16746781 -3.26245117 63.22387695 C-3.29570325 65.85727936 -3.32373424 68.49075309 -3.34643555 71.12426758 C-3.37997529 74.90997711 -3.4322932 78.69503289 -3.48828125 82.48046875 C-3.49786613 84.2463459 -3.49786613 84.2463459 -3.50764465 86.04789734 C-3.52743881 87.14866104 -3.54723297 88.24942474 -3.56762695 89.38354492 C-3.57873001 90.34951096 -3.58983307 91.31547699 -3.60127258 92.31071472 C-4.07316001 95.49344023 -5.14032912 97.39590478 -7 100 C-11.0345248 102.73093601 -15.29922464 102.53723147 -20 102 C-23.15567412 100.72430195 -24.51307269 99.91346572 -26.11174011 96.91439819 C-27.2701776 93.11354197 -27.2870828 89.49171194 -27.2746582 85.55712891 C-27.27976913 84.71908218 -27.28488007 83.88103546 -27.29014587 83.01759338 C-27.30401842 80.25384328 -27.30308673 77.49034324 -27.30078125 74.7265625 C-27.30466973 72.79991565 -27.30900471 70.87326965 -27.31376648 68.94662476 C-27.32122386 64.91002625 -27.32094109 60.87351521 -27.31567383 56.83691406 C-27.30988269 51.67314759 -27.32680399 46.50974022 -27.3500185 41.3460331 C-27.36477677 37.36709512 -27.36562464 33.38824318 -27.36250877 29.40928268 C-27.36302102 27.50595769 -27.36824068 25.60262775 -27.37832069 23.69932938 C-27.39070709 21.03320492 -27.3838801 18.36777416 -27.37231445 15.70166016 C-27.38378006 14.53092201 -27.38378006 14.53092201 -27.39547729 13.33653259 C-27.34627368 8.18470588 -26.47854383 4.55089848 -24 0 C-16.5208609 -4.54614337 -7.57263956 -4.21839981 0 0 Z " fill="#000000" transform="translate(131,96)"/>
<path d="M0 0 C1.06025391 -0.00322266 2.12050781 -0.00644531 3.21289062 -0.00976562 C15.83506942 0.07484374 27.75432695 1.32839676 37.6875 9.75 C43.83176466 17.15926032 46.33923187 23.76561013 45.625 33.4375 C44.57258793 41.15518851 42.18831953 46.66788949 36.8125 52.3125 C35.8225 52.9725 34.8325 53.6325 33.8125 54.3125 C34.52835019 58.34545881 36.49525526 61.72768492 38.375 65.3125 C41.65682235 71.735883 44.59239804 78.25702319 47.3125 84.9375 C47.66256104 85.77796875 48.01262207 86.6184375 48.37329102 87.484375 C50.1327468 91.88943261 51.38006413 95.48451939 50.8125 100.3125 C49.03265595 103.4484157 48.28941793 104.15352736 44.8125 105.3125 C40.40326452 105.70111058 36.24527411 105.75825195 32 104.4375 C25.48842371 98.11196875 22.9205763 87.76924697 19.75463867 79.44555664 C16.39480411 70.7108582 16.39480411 70.7108582 9.8125 64.3125 C7.53711677 63.64636665 7.53711677 63.64636665 5.125 63.1875 C4.31675781 63.01992187 3.50851563 62.85234375 2.67578125 62.6796875 C1.75345703 62.49792969 1.75345703 62.49792969 0.8125 62.3125 C0.82821045 63.37686279 0.8439209 64.44122559 0.86010742 65.5378418 C0.91453054 69.49805086 0.94889493 73.45822704 0.97729492 77.41870117 C0.9923534 79.13067184 1.01280455 80.84260411 1.03881836 82.55444336 C1.0753319 85.01946505 1.09225562 87.48397535 1.10546875 89.94921875 C1.12095261 90.71086838 1.13643646 91.47251801 1.15238953 92.25724792 C1.15381962 96.80369934 0.62483952 99.69737006 -2.1875 103.3125 C-6.2220248 106.04343601 -10.48672464 105.84973147 -15.1875 105.3125 C-18.34317412 104.03680195 -19.70057269 103.22596572 -21.29924011 100.22689819 C-22.4576776 96.42604197 -22.4745828 92.80421194 -22.4621582 88.86962891 C-22.46726913 88.03158218 -22.47238007 87.19353546 -22.47764587 86.33009338 C-22.49151842 83.56634328 -22.49058673 80.80284324 -22.48828125 78.0390625 C-22.49216973 76.11241565 -22.49650471 74.18576965 -22.50126648 72.25912476 C-22.50872386 68.22252625 -22.50844109 64.18601521 -22.50317383 60.14941406 C-22.49738269 54.98564759 -22.51430399 49.82224022 -22.5375185 44.6585331 C-22.55227677 40.67959512 -22.55312464 36.70074318 -22.55000877 32.72178268 C-22.55052102 30.81845769 -22.55574068 28.91512775 -22.56582069 27.01182938 C-22.57820709 24.34570492 -22.5713801 21.68027416 -22.55981445 19.01416016 C-22.57128006 17.84342201 -22.57128006 17.84342201 -22.58297729 16.64903259 C-22.53376022 11.49579591 -21.64762191 7.87228573 -19.1875 3.3125 C-13.24095535 -0.58570217 -6.92207543 -0.10331456 0 0 Z M0.8125 20.3125 C0.8125 27.9025 0.8125 35.4925 0.8125 43.3125 C8.1926821 43.54210461 8.1926821 43.54210461 14.6875 42 C15.40679687 41.75636719 16.12609375 41.51273438 16.8671875 41.26171875 C19.03413092 40.20435479 20.29508983 39.18183964 21.8125 37.3125 C22.90401107 33.25831604 22.8937953 30.66090842 21.9375 26.5625 C19.43975994 22.74242697 17.86666892 22.03325644 13.65234375 20.72265625 C9.41418807 20.11054298 5.09463103 20.3125 0.8125 20.3125 Z " fill="#000000" transform="translate(223.1875,92.6875)"/>
</svg>
