<?xml version="1.0" encoding="UTF-8"?>
<svg version="1.1" xmlns="http://www.w3.org/2000/svg" width="170" height="170">
<path d="M0 0 C1.51803756 1.31276036 3.01935951 2.64520056 4.5 4 C5.18191406 4.59039063 5.86382812 5.18078125 6.56640625 5.7890625 C18.49466002 16.76025481 27.44862097 33.59868467 28.72143555 49.82250977 C29.66564723 74.54313941 24.43274323 92.93715263 8.5 112 C7.93667969 112.67933594 7.37335938 113.35867187 6.79296875 114.05859375 C-4.320585 126.2412995 -22.71070113 134.87816332 -38.96240234 136.30371094 C-42.60557305 136.43658951 -46.22957081 136.46812783 -49.875 136.4375 C-51.15850342 136.42847656 -52.44200684 136.41945312 -53.7644043 136.41015625 C-62.68489736 136.2465296 -70.27001842 135.66692546 -78.5 132 C-79.14179199 131.72091797 -79.78358398 131.44183594 -80.44482422 131.15429688 C-100.14751994 122.45092554 -114.19527249 108.77702995 -122.81640625 88.9765625 C-130.14542295 69.66690228 -129.92802481 48.0097993 -122.25 28.88671875 C-113.81277892 10.40632825 -98.53953908 -4.41845012 -79.48046875 -11.57421875 C-52.81824123 -20.94298887 -22.54938912 -17.51542763 0 0 Z M-100.625 23.5078125 C-111.26973855 37.77726806 -113.83672898 53.70479428 -111.5 71 C-107.99668933 87.3729856 -99.08438009 101.59633422 -85.0625 110.9375 C-68.61372389 120.53066957 -51.70219709 123.52854174 -33.0546875 119.10546875 C-23.12251681 116.01667281 -14.27184118 110.8978992 -6.5 104 C-5.89929688 103.49210937 -5.29859375 102.98421875 -4.6796875 102.4609375 C6.49968329 92.28420086 12.03402006 78.21841373 13.375 63.4375 C14.10165827 45.74337114 8.00893627 32.06777829 -3.40625 18.78125 C-12.9140346 8.65000412 -26.9447995 0.74346192 -41.00439453 -0.16113281 C-43.87804665 -0.20704292 -46.75101216 -0.2352616 -49.625 -0.25 C-50.60726562 -0.270625 -51.58953125 -0.29125 -52.6015625 -0.3125 C-72.14045142 -0.41533626 -88.2693453 8.92632295 -100.625 23.5078125 Z " fill="#000000" transform="translate(132.5,24)"/>
<path d="M0 0 C4.93697329 5.32673433 5.34470614 8.90826729 5.28515625 16.01171875 C4.80981716 20.99301195 2.58239469 23.60941073 -1.0625 26.8125 C-5.72805822 29.67203568 -10.70233066 29.57880454 -16 29 C-19.70115518 27.73652588 -22.31402131 25.80030847 -24.875 22.8125 C-26.95554537 17.61113658 -27.24960468 12.84083454 -26.5 7.3125 C-24.56761149 3.04514204 -21.9520462 0.48461976 -18 -2 C-11.51562318 -4.08202428 -5.93511212 -3.24751418 0 0 Z M-14.8125 5.9375 C-17.24589841 9.34425777 -17.69936052 10.9927124 -17.421875 15.0625 C-16.73070929 18.23674251 -15.42811712 19.90000681 -13 22 C-10.45632332 22.75021244 -10.45632332 22.75021244 -8 22 C-4.90381946 19.12497521 -4.16283038 16.15217465 -4 12 C-4.96353429 8.16738737 -4.96353429 8.16738737 -7 5 C-10.55325469 3.12986595 -11.52196046 3.67068387 -14.8125 5.9375 Z " fill="#000000" transform="translate(80,69)"/>
<path d="M0 0 C0 2.64 0 5.28 0 8 C-0.99 8.495 -0.99 8.495 -2 9 C-3.73259244 8.24812026 -5.46398226 7.49278013 -7.1796875 6.703125 C-9.51553415 5.80086664 -11.52334423 5.77484948 -14 6 C-14.33 6.66 -14.66 7.32 -15 8 C-14.09636719 8.24234375 -13.19273438 8.4846875 -12.26171875 8.734375 C-11.08222656 9.06953125 -9.90273437 9.4046875 -8.6875 9.75 C-7.51574219 10.07484375 -6.34398437 10.3996875 -5.13671875 10.734375 C-1.81251276 12.07564865 -0.668035 12.88124443 1 16 C1.52320903 20.11092805 1.45925779 22.23457035 -0.6875 25.8125 C-5.34906874 30.22209205 -10.11148753 30.36107732 -16.26171875 30.26953125 C-20.03701775 29.8979255 -22.66901852 28.77652346 -26 27 C-25.67 24.36 -25.34 21.72 -25 19 C-24.236875 19.309375 -23.47375 19.61875 -22.6875 19.9375 C-18.19795078 21.71243807 -14.8308895 22.09114886 -10 22 C-9.67 21.01 -9.34 20.02 -9 19 C-10.19625 18.896875 -11.3925 18.79375 -12.625 18.6875 C-16.57894038 18.18975219 -19.57683059 17.11910487 -23 15 C-25.4399857 11.34002145 -25.8426464 8.25622419 -25 4 C-17.87979538 -3.73050787 -9.26033407 -2.59939202 0 0 Z " fill="#000000" transform="translate(113,68)"/>
<path d="M0 0 C3.031875 -0.061875 6.06375 -0.12375 9.1875 -0.1875 C10.60712036 -0.22846802 10.60712036 -0.22846802 12.05541992 -0.27026367 C16.87037779 -0.31779483 20.09642587 -0.1537787 24 3 C26.23421993 5.74199719 25.99488929 7.32197481 25.9375 10.9375 C25.27126794 15.23991427 23.43842111 17.29838341 20 20 C17.24921116 20.91692961 15.64051087 21.10886083 12.8125 21.0625 C10.9253125 21.0315625 10.9253125 21.0315625 9 21 C9 23.97 9 26.94 9 30 C6.03 30 3.06 30 0 30 C0 20.1 0 10.2 0 0 Z M9 7 C9 9.31 9 11.62 9 14 C11.41645782 14.16687448 11.41645782 14.16687448 14 14 C14.66 13.34 15.32 12.68 16 12 C15.67958603 9.39719432 15.67958603 9.39719432 15 7 C13.02 7 11.04 7 9 7 Z " fill="#000000" transform="translate(26,67)"/>
<path d="M0 0 C8.91 0 17.82 0 27 0 C27 2.31 27 4.62 27 7 C24.03 7 21.06 7 18 7 C18 14.59 18 22.18 18 30 C15.03 30 12.06 30 9 30 C9 22.41 9 14.82 9 7 C6.03 7 3.06 7 0 7 C0 4.69 0 2.38 0 0 Z " fill="#000000" transform="translate(115,67)"/>
<path d="M0 0 C1.49403054 2.98806107 2.79310745 5.89656201 4 9 C2.68 9 1.36 9 0 9 C0 6.03 0 3.06 0 0 Z " fill="#000000" transform="translate(43,96)"/>
<path d="M0 0 C4 1 4 1 4 1 Z " fill="#000000" transform="translate(62,62)"/>
<path d="" fill="#000000" transform="translate(0,0)"/>
</svg>
