<?xml version="1.0" encoding="UTF-8"?>
<svg version="1.1" xmlns="http://www.w3.org/2000/svg" width="200" height="400">
<path d="M0 0 C-0.64324219 0.31710938 -1.28648437 0.63421875 -1.94921875 0.9609375 C-18.15806563 9.33126927 -31.89636015 21.61439934 -43 36 C-43.71800781 36.90234375 -44.43601562 37.8046875 -45.17578125 38.734375 C-62.38171145 60.86065114 -77.61514003 88.59008815 -84 116 C-83.35675781 115.68546875 -82.71351562 115.3709375 -82.05078125 115.046875 C-57.13513018 103.24659518 -28.1813565 100.95507101 -1.96337891 109.94995117 C11.45031733 114.83339011 23.41920508 121.33421093 34 131 C34.77859375 131.69738281 35.5571875 132.39476562 36.359375 133.11328125 C53.2098683 149.00503959 63.79320847 171.51842275 64.54101562 194.66992188 C64.97195306 255.19704404 35.02020628 317.58291274 -6.875 360.1875 C-13.1198163 366.38934738 -19.90370118 371.80876077 -27 377 C-27.57556641 377.42522949 -28.15113281 377.85045898 -28.74414062 378.28857422 C-36.38442644 383.86443937 -44.35822769 388.38786145 -52.875 392.5 C-53.74261963 392.921604 -54.61023926 393.34320801 -55.50415039 393.77758789 C-60.95560401 396.32354771 -66.0829497 397.9002654 -72 399 C-68.75228576 396.31685257 -65.47791282 393.99038014 -61.875 391.8125 C-24.14909801 367.95641492 -2.0390374 325.10112922 12 284 C11.175 284.38671875 10.35 284.7734375 9.5 285.171875 C-16.61055373 296.94493717 -46.09664642 298.93211963 -73.16674805 288.87866211 C-76.16112432 287.68823847 -79.08215758 286.36601821 -82 285 C-83.423125 284.34064453 -83.423125 284.34064453 -84.875 283.66796875 C-108.01966134 271.99471659 -124.4434929 251.21309456 -133 227 C-146.64624777 185.18789682 -126.51070617 132.08159459 -107.9296875 94.59765625 C-101.27854443 81.61113146 -93.13161685 69.37114982 -84 58 C-83.58959473 57.48808105 -83.17918945 56.97616211 -82.75634766 56.44873047 C-69.91856616 40.55226672 -24.07358601 -9.13532262 0 0 Z M-90 154 C-102.30416219 168.81372398 -108.20048225 186.83674637 -107 206 C-104.31021673 227.10796023 -94.73439628 243.86783071 -78 257 C-63.37315615 267.4302842 -45.06791948 271.87473848 -27.27734375 269.50390625 C-8.58331463 266.13783997 8.71855988 256.40478044 19.75 240.6875 C30.6035281 224.61575131 35.03687546 206.75971298 31.78515625 187.5078125 C28.73149582 173.8650908 22.61846397 159.52579881 12 150 C11.34 150 10.68 150 10 150 C10 149.34 10 148.68 10 148 C8.09438806 146.45793883 6.20937406 145.06269037 4.1875 143.6875 C3.59727051 143.28450684 3.00704102 142.88151367 2.39892578 142.46630859 C-28.03813498 122.15584854 -64.89595151 128.26094185 -90 154 Z " fill="#000000" transform="translate(136,1)"/>
<path d="M0 0 C0 4.62 0 9.24 0 14 C-3.21656216 13.19585946 -5.70428867 12.27778335 -8.6875 10.9375 C-14.59711011 8.52470061 -19.90872434 7.96957478 -26 10 C-26 11.32 -26 12.64 -26 14 C-25.41734375 14.17015625 -24.8346875 14.3403125 -24.234375 14.515625 C-22.48867686 15.03164898 -20.74537558 15.55581739 -19.00390625 16.0859375 C-16.95358131 16.70983352 -14.89859923 17.31857575 -12.83984375 17.9140625 C-2.71838407 20.99941452 -2.71838407 20.99941452 1 26 C2.84096186 31.52288559 2.91011456 36.99016369 0.5 42.3125 C-3.54404371 46.65984698 -8.90687978 50.67314466 -15.01782227 51.16113281 C-34.22016252 51.51193499 -34.22016252 51.51193499 -43 48 C-43 43.38 -43 38.76 -43 34 C-39.0430555 34.7913889 -37.29103427 35.26914343 -34 37.0625 C-28.19331913 39.76510358 -22.28696766 39.55022242 -16 39 C-15.01 38.505 -15.01 38.505 -14 38 C-14.22365924 36.02493796 -14.22365924 36.02493796 -15 34 C-17.74846066 32.96556842 -20.28924993 32.18759826 -23.125 31.5 C-29.74734762 29.8444131 -36.11845543 28.16969903 -40.875 22.9375 C-43.26399286 18.8231234 -43.63516098 14.64902547 -43 10 C-39.96918801 4.16288061 -36.03328726 0.61569361 -29.9375 -1.75 C-19.71689443 -4.82462845 -10.07602457 -2.62852815 0 0 Z " fill="#000000" transform="translate(95,175)"/>
<path d="M0 0 C1 1 1 1 1.09765625 3.94140625 C1.08605469 5.13636719 1.07445312 6.33132812 1.0625 7.5625 C1.05347656 8.76003906 1.04445312 9.95757812 1.03515625 11.19140625 C1.02355469 12.11824219 1.01195312 13.04507813 1 14 C-2.4440641 13.42799635 -5.15683836 12.53563351 -8.25 10.9375 C-12.84609382 8.82744023 -16.98805281 8.17585572 -22 9 C-24.20374581 9.95777992 -24.20374581 9.95777992 -26 11 C-26 12.32 -26 13.64 -26 15 C-24.7934375 15.23074219 -23.586875 15.46148437 -22.34375 15.69921875 C-4.13780723 19.34496686 -4.13780723 19.34496686 2 26.25 C3.6717806 30.84739666 3.86586747 35.26625491 2.37890625 39.9609375 C-0.0742127 44.9543974 -4.05016708 47.66043053 -9 50 C-19.27716203 53.0144546 -32.19900928 51.8561275 -42 48 C-42 43.38 -42 38.76 -42 34 C-38.00296577 34.79940685 -36.3970921 35.22933997 -33.125 37.0625 C-26.7472979 40.06186075 -19.87649674 39.32615795 -13 39 C-13.495 36.525 -13.495 36.525 -14 34 C-15.84464844 33.52820313 -15.84464844 33.52820313 -17.7265625 33.046875 C-19.35953043 32.61517083 -20.99233442 32.18284622 -22.625 31.75 C-23.43324219 31.54503906 -24.24148437 31.34007812 -25.07421875 31.12890625 C-31.30435966 29.45740503 -35.95956541 27.25521718 -40.375 22.375 C-42.58489209 17.78522411 -42.77578866 14.00587839 -42 9 C-39.43704664 3.09406401 -34.74597741 0.43210848 -29 -2 C-19.26262414 -4.48115827 -9.42754726 -3.08916235 0 0 Z " fill="#000000" transform="translate(144,175)"/>
</svg>
