<?xml version="1.0" encoding="UTF-8"?>
<svg version="1.1" xmlns="http://www.w3.org/2000/svg" width="170" height="170">
<path d="M0 0 C1.51803756 1.31276036 3.01935951 2.64520056 4.5 4 C5.18191406 4.59039063 5.86382812 5.18078125 6.56640625 5.7890625 C18.49466002 16.76025481 27.44862097 33.59868467 28.72143555 49.82250977 C29.66564723 74.54313941 24.43274323 92.93715263 8.5 112 C7.93667969 112.67933594 7.37335938 113.35867187 6.79296875 114.05859375 C-4.320585 126.2412995 -22.71070113 134.87816332 -38.96240234 136.30371094 C-42.60557305 136.43658951 -46.22957081 136.46812783 -49.875 136.4375 C-51.15850342 136.42847656 -52.44200684 136.41945312 -53.7644043 136.41015625 C-62.68489736 136.2465296 -70.27001842 135.66692546 -78.5 132 C-79.14179199 131.72091797 -79.78358398 131.44183594 -80.44482422 131.15429688 C-100.14751994 122.45092554 -114.19527249 108.77702995 -122.81640625 88.9765625 C-130.14542295 69.66690228 -129.92802481 48.0097993 -122.25 28.88671875 C-113.81277892 10.40632825 -98.53953908 -4.41845012 -79.48046875 -11.57421875 C-52.81824123 -20.94298887 -22.54938912 -17.51542763 0 0 Z M-100.625 23.5078125 C-111.26973855 37.77726806 -113.83672898 53.70479428 -111.5 71 C-107.99668933 87.3729856 -99.08438009 101.59633422 -85.0625 110.9375 C-68.61372389 120.53066957 -51.70219709 123.52854174 -33.0546875 119.10546875 C-23.12251681 116.01667281 -14.27184118 110.8978992 -6.5 104 C-5.89929688 103.49210937 -5.29859375 102.98421875 -4.6796875 102.4609375 C6.49968329 92.28420086 12.03402006 78.21841373 13.375 63.4375 C14.10165827 45.74337114 8.00893627 32.06777829 -3.40625 18.78125 C-12.9140346 8.65000412 -26.9447995 0.74346192 -41.00439453 -0.16113281 C-43.87804665 -0.20704292 -46.75101216 -0.2352616 -49.625 -0.25 C-50.60726562 -0.270625 -51.58953125 -0.29125 -52.6015625 -0.3125 C-72.14045142 -0.41533626 -88.2693453 8.92632295 -100.625 23.5078125 Z " fill="#000000" transform="translate(132.5,24)"/>
<path d="M0 0 C28.66666667 0 28.66666667 0 36 6 C40.86300221 11.08404776 43.02443708 15.37747168 43.3125 22.375 C43.11066335 29.88080045 40.45542525 35.78176715 35 41 C27.82284416 45.59432865 20.71650483 45.48637864 12.4375 45.25 C8.333125 45.1675 4.22875 45.085 0 45 C0 30.15 0 15.3 0 0 Z M13 10 C13 18.58 13 27.16 13 36 C22.33857099 35.97817478 22.33857099 35.97817478 26.0625 32.5625 C29.62014357 27.85722948 29.64724166 23.78084333 29 18 C27.39306865 14.7861373 26.05663831 12.83021581 23.25 10.625 C20.10450824 9.64314151 20.10450824 9.64314151 13 10 Z " fill="#000000" transform="translate(86,62)"/>
<path d="M0 0 C0.84477905 0.00202423 1.68955811 0.00404846 2.55993652 0.00613403 C3.42179565 0.00517731 4.28365479 0.00422058 5.17163086 0.00323486 C6.99751864 0.00255304 8.82340884 0.00440749 10.64929199 0.00857544 C13.45419731 0.01392367 16.25894248 0.00863054 19.06384277 0.00222778 C20.83337438 0.00288856 22.60290588 0.00416973 24.37243652 0.00613403 C25.21721558 0.0041098 26.06199463 0.00208557 26.93237305 0 C32.85123621 0.02399622 32.85123621 0.02399622 33.96618652 1.13894653 C34.1081199 4.14225671 34.00855031 7.13111787 33.96618652 10.13894653 C29.34618652 10.13894653 24.72618652 10.13894653 19.96618652 10.13894653 C19.96618652 21.68894653 19.96618652 33.23894653 19.96618652 45.13894653 C15.67618652 45.13894653 11.38618652 45.13894653 6.96618652 45.13894653 C6.96618652 33.58894653 6.96618652 22.03894653 6.96618652 10.13894653 C2.34618652 10.13894653 -2.27381348 10.13894653 -7.03381348 10.13894653 C-7.13146973 3.20535278 -7.13146973 3.20535278 -7.03381348 1.13894653 C-5.16418629 -0.73068065 -2.48717787 0.0100835 0 0 Z " fill="#000000" transform="translate(47.0338134765625,61.861053466796875)"/>
</svg>
